<svg xmlns="http://www.w3.org/2000/svg" width="19" height="14" viewBox="0 0 19 14">
    <g fill="none" fill-rule="evenodd">
        <g fill="#90EB2C" fill-rule="nonzero" stroke="#90EB2C" stroke-width="2">
            <g>
                <path d="M17.735 1.253C17.568 1.091 17.34 1 17.101 1c-.239 0-.467.091-.635.253L6.369 10.931 2.533 7.248c-.35-.335-.92-.335-1.27 0-.35.336-.35.88 0 1.217l4.471 4.282c.168.162.397.253.635.253.239 0 .467-.091.635-.253L17.735 2.469c.17-.16.265-.38.265-.608 0-.228-.095-.447-.265-.608z" transform="translate(-61 -3255) translate(61 3255)"/>
            </g>
        </g>
    </g>
</svg>
