<svg xmlns="http://www.w3.org/2000/svg" width="19" height="14" viewBox="0 0 19 14">
    <g fill="none" fill-rule="evenodd">
        <g fill="#9B9B9B" fill-rule="nonzero">
            <g>
                <g>
                    <path d="M15.505 13.52c-.647.63-1.696.63-2.343 0L9.5 9.445 5.84 13.518c-.418.413-1.03.577-1.606.428-.575-.148-1.025-.586-1.177-1.146-.153-.56.015-1.157.44-1.564l3.808-4.235-3.81-4.237c-.424-.407-.592-1.004-.44-1.564.153-.56.602-.998 1.178-1.146.575-.149 1.188.015 1.605.428l3.663 4.075L13.16.482c.418-.413 1.031-.577 1.606-.428.576.148 1.025.586 1.178 1.146.152.56-.016 1.157-.44 1.564L11.696 7l3.809 4.235c.311.303.486.714.486 1.142 0 .428-.175.839-.486 1.141z" transform="translate(-178 -3254) translate(178 3254)"/>
                </g>
            </g>
        </g>
    </g>
</svg>
